<?xml version="1.0" standalone="no"?>
<!DOCTYPE svg PUBLIC "-//W3C//DTD SVG 1.1//EN" "http://www.w3.org/Graphics/SVG/1.1/DTD/svg11.dtd">
<svg xmlns="http://www.w3.org/2000/svg">
<metadata>Copyright (C) 2015 by original authors @ fontello.com</metadata>
<defs>
<font id="fontello" horiz-adv-x="1000" >
<font-face font-family="fontello" font-weight="400" font-stretch="normal" units-per-em="1000" ascent="850" descent="-150" />
<missing-glyph horiz-adv-x="1000" />
<glyph glyph-name="snow-heavy-inv" unicode="&#xe800;" d="m0 506q0 90 64 154t155 65q17 0 31-2 43 61 109 93 68 33 141 33t140-33q66-32 110-93 13 2 31 2 90 0 154-65t64-154-64-154-154-65q-42 0-78 14-88-76-203-76t-203 76q-37-14-78-14-90 0-155 65t-64 154z m60-392q-5 19 14 25l24 6q0 12 6 21l-18 18q-14 14 0 28 14 15 29 1l18-17q9 3 21 5l6 24q6 19 25 13t14-25l-6-23q5-3 8-6 4-5 8-10l23 8q20 3 26-16 6-19-16-25l-23-6q0-12-6-21l17-18q16-14 1-28-14-15-30-1l-16 17q-11-3-21-6l-8-23q-4-20-24-15-21 5-15 27l6 23q-7 4-16 16l-23-8q-20-3-24 16z m84 11q14-13 29 0 14 14-1 28-14 15-28 1-15-15 0-29z m204-163q3 15 15 21l35 21q-3 19 0 37l-35 20q-12 8-15 21t2 27q7 12 21 16t27-4l35-21q14 14 32 19v41q0 14 10 25t25 11 24-11 11-25v-41q17-5 31-19l35 21q14 8 28 4t20-16q7-13 3-27t-16-21l-35-20q4-18 0-37l35-21q12-6 16-21t-3-26q-7-12-21-16t-27 4l-35 20q-14-12-31-18v-41q0-15-11-25t-24-10-25 10-10 25v41q-17 6-32 18l-35-20q-13-7-27-4t-21 16q-6 12-2 26z m117 61q0-15 10-25t25-9 23 9q12 10 12 25t-11 24-24 10-25-10-10-24z m277 81q6 19 25 13l24-5q3 5 7 9 3 3 8 6l-6 24q-5 19 14 25t25-14l6-23q12-2 22-6l17 18q15 13 30-1 13-15 0-29l-18-17q6-10 6-22l23-6q20-5 15-25-5-19-24-16l-24 8q-8-12-16-15l6-24q6-21-14-26-21-6-25 14l-7 24q-13 2-22 6l-16-18q-15-14-30 1-14 14 1 29l18 17q-6 9-6 22l-24 5q-21 6-15 26z m85-41q14-14 29 0 14 13-1 27-14 16-28 1-15-15 0-28z" horiz-adv-x="1000" />
<glyph glyph-name="chart-bar" unicode="&#xe801;" d="m357 350v-286h-143v286h143z m214 286v-572h-142v572h142z m572-643v-72h-1143v858h71v-786h1072z m-357 500v-429h-143v429h143z m214 214v-643h-143v643h143z" horiz-adv-x="1142.9" />
<glyph glyph-name="emo-happy" unicode="&#xe802;" d="m262 800c-61 0-110-65-110-144 0-80 49-144 110-144s109 64 109 144c0 79-49 144-109 144z m476 0c-60 0-110-65-110-144 0-80 50-144 110-144 60 0 110 64 110 144 0 79-50 144-110 144z m208-599c-13 0-27-5-37-16-4-4-8-8-12-12-110-109-254-164-396-165-142-1-284 50-397 155l-2 3-12 12c-21 20-54 20-75 0-20-22-20-56 1-77 3-3 8-8 14-14l3-3c132-124 301-186 469-184 169 2 337 67 468 195 4 5 9 9 14 14 20 22 20 56-1 77-10 10-24 16-37 15z" horiz-adv-x="999" />
<glyph glyph-name="anonymous" unicode="&#xe803;" d="m3-105q-13 42 26 70 119 78 291 116-84 105-119 256-10 54-11 121t23 149 66 137q84 106 223 106t222-106q44-56 67-137t22-149-10-121q-35-151-120-256 172-38 291-116 39-28 26-71t-61-44l-875 0q-21 0-38 12t-23 33z m61 17l875 0q-109 73-267 108l-79 16q-45-30-91-30t-92 30l-78-16q-160-35-268-108z m194 602q-14-103 15-208t96-187l9-13q57-64 124-64t123 64l9 13q67 83 96 187t16 208q-14 114-77 194t-167 80-169-80-75-194z" horiz-adv-x="1003" />
<glyph glyph-name="mic" unicode="&#xe804;" d="m643 458v-72q0-123-82-215t-203-104v-75h142q14 0 25-10t11-25-11-25-25-10h-357q-15 0-25 10t-10 25 10 25 25 10h143v75q-121 13-203 104t-83 215v72q0 14 11 25t25 10 25-10 11-25v-72q0-103 73-177t177-73 176 73 74 177v72q0 14 10 25t26 10 25-10 10-25z m-143 214v-286q0-74-52-126t-126-52-127 52-52 126v286q0 73 52 126t127 52 126-52 52-126z" horiz-adv-x="642.9" />
<glyph glyph-name="clear" unicode="&#xe805;" d="m0-25v833q0 17 13 30t29 12h208v-250h417v250h83l167-167v-224l-86-86-142 142-248-248h-274v-334h-125q-18 0-29 12t-13 30z m500 708h83v167h-83v-167z m83-722l142 142-142 141 106 106 142-142 142 142 105-107-141-140 141-142-105-106-142 142-142-142z" horiz-adv-x="1000" />
<glyph glyph-name="sign-in" unicode="&#xe806;" d="m-83 288q0-10 5-15t15-6h230v-103q0-9 5-11t11 4l218 181q7 5 7 14t-7 13l-218 179q-7 5-11 4t-5-11v-104h-230q-9 0-15-5t-5-15v-125z m333-271q0-17 13-30t29-12h166v-83q0-21 17-34 12-8 25-8 6 0 11 1l458 125q1 0 1 1t2 0 1 0q2 1 5 3 4 2 7 5 2 2 4 4 3 3 6 8 1 3 3 5 2 8 2 15v750q0 8-4 17-1 1-1 2t-2 2q-5 7-8 10l-2 2q0 0-3 1-5 4-10 5l-7 2q0 0-2 0t-3 0h-666q-17 0-29-12t-13-29v-192l208-172v-104l-208-174v-108z m292-71v664l375 103v-665z" horiz-adv-x="1000" />
<glyph glyph-name="italic" unicode="&#xe807;" d="m208-150v47q61 5 96 33t43 68l132 702q1 5 3 13 11 45 1 60t-66 30v47h335l1-47q-28-6-44-10t-30-11-21-12-14-17-9-22-6-31l-119-702q-6-38 17-66t56-35v-47h-375z" horiz-adv-x="1000" />
<glyph glyph-name="bold" unicode="&#xe808;" d="m83-150v74q35 6 60 27t24 54v690q0 15 0 22t-2 16-2 15-6 10-10 10-15 8-21 7-28 7v60h457q48 0 95-19t88-52 65-84 25-109q0-33-10-63t-27-51-37-39-39-29-37-19-26-11l-10-3q5-1 13-3t33-13 48-23 51-35 46-49 34-63 13-80q0-52-21-95t-56-73-79-49-86-29-85-9h-455z m292 125h125q70 0 110 40t42 113q0 37-9 70t-28 56-48 40-69 14h-123v-333z m0 458h123q25 0 44 9t31 21 20 34 10 39 4 43q0 29-5 54t-18 46-34 34-52 12h-123v-292z" horiz-adv-x="1000" />
<glyph glyph-name="text" unicode="&#xe809;" d="m83-150v83h834v-83h-834z m0 792v208h834v-208h-42q0 61-34 93t-91 32h-167v-667q0-10 6-17t18-12 23-8 28-3 26-2 24 0v-41h-416v41q15 0 24 0t27 2 27 3 23 8 18 12 6 17v667h-167q-57 0-91-32t-34-93h-42z" horiz-adv-x="1000" />
<glyph glyph-name="heart" unicode="&#xe80a;" d="m500-78q-14 0-25 10l-347 336q-6 4-16 14t-31 36-38 55-30 67-13 78q0 122 71 191t196 69q35 0 71-11t66-33 54-38 42-38q20 20 43 38t53 38 67 33 70 11q125 0 196-69t71-191q0-124-127-251l-349-335q-10-10-24-10z" horiz-adv-x="1000" />
<glyph glyph-name="quote-left" unicode="&#xe80b;" d="m428 314v-214q0-45-30-76t-76-32h-214q-45 0-77 32t-31 76v393q0 58 23 110t60 92 92 61 111 22h36q14 0 25-10t11-25v-71q0-15-11-25t-25-11h-36q-59 0-101-42t-42-101v-18q0-22 15-38t39-15h125q44 0 76-32t30-76z m500 0v-214q0-45-30-76t-76-32h-214q-45 0-77 32t-31 76v393q0 58 23 110t60 92 92 61 111 22h36q14 0 25-10t11-25v-71q0-15-11-25t-25-11h-36q-59 0-101-42t-42-101v-18q0-22 15-38t39-15h125q44 0 76-32t30-76z" horiz-adv-x="928.6" />
<glyph glyph-name="wrench" unicode="&#xe80c;" d="m0 21l463 462q-25 69-10 146t72 134 133 72 147-10l-162-162 45-117 115-45 164 164q26-70 9-147t-73-133-132-72-148 9l-463-464z m113-3q0-19 14-32t33-14 33 14 14 32-14 34-33 14-33-14-14-34z" horiz-adv-x="982" />
<glyph glyph-name="users" unicode="&#xe80d;" d="m0 48q19 9 59 23t70 26 50 22q37 19 57 56t21 76q0 27-31 64-19 21-33 60-45 18-45 76 0 42 14 61-5 39-9 82-5 55 26 108t84 84 110 32q44 0 85-19t73-50 48-72 14-83q-5-56-8-82 14-19 14-61 0-58-45-76-15-41-32-60-33-37-33-64 0-39 21-76t58-56q30-15 92-38t113-43 66-38q18-18 28-47t11-51l0-21h-878v167z m705 300q0 35 12 50-5 32-7 67-4 45 22 89t68 72 90 27 89-27 69-72 22-89q-2-35-7-67 11-15 11-50 0-48-36-62-11-33-27-50-8-10-13-16t-9-16-4-20q0-31 17-62t46-46q19-8 44-18t59-23 50-18v-136h-253q0 4-1 11t-3 25-7 37-14 38-24 33q-23 25-53 44t-79 37q27 34 27 78 0 9-5 20t-8 16-13 16q-13 15-26 49-37 17-37 63z" horiz-adv-x="1201.2" />
<glyph glyph-name="settings" unicode="&#xe80e;" d="m3 688q1 10 7 15l60 60q6 6 15 7t18-3l117-77q8-5 13-14t5-18l-1-22q-1-8 3-19t10-17l128-125-80-75-125 123q-6 6-17 10t-19 4l-22-1q-8-1-17 4t-15 13l-76 118q-4 7-4 17z m20-681q0 17 12 29l480 480q-27 82 4 162t109 123q40 22 80 31t83-1 82-37l-208-111 117-185 201 100q5-70-28-125t-93-88q-48-27-102-32t-101 13l-476-478q-13-11-30-11t-30 11l-88 89q-12 12-12 30z m491 112l147 154 267-245q7-5 7-14t-6-15l-146-146q-5-6-15-6t-14 7z" horiz-adv-x="1000" />
<glyph glyph-name="login" unicode="&#xe80f;" d="m661 350q0-14-11-25l-303-303q-11-11-25-11t-25 11-11 25v161h-250q-15 0-25 10t-11 25v215q0 14 11 25t25 10h250v160q0 15 11 25t25 11 25-11l303-303q11-11 11-25z m197 197v-394q0-65-48-113t-113-48h-179q-7 0-13 6t-5 13q0 2-1 11t0 15 2 13 6 11 11 3h179q36 0 62 27t27 62v394q0 36-27 62t-62 27h-174t-7 0-7 2-4 3-4 5-1 7q0 3-1 12t0 14 2 14 6 10 11 5h179q66 0 113-48t48-113z" horiz-adv-x="857.1" />
<glyph glyph-name="mute" unicode="&#xe810;" d="m151 323l-56-56q-23 56-23 119v72q0 14 10 25t26 10 25-10 10-25v-72q0-30 8-63z m622 335l-201-200v-72q0-74-53-126t-126-52q-30 0-61 10l-54-54q55-28 115-28 103 0 176 73t74 177v72q0 14 10 25t25 10 25-10 11-25v-72q0-123-82-215t-204-104v-75h144q14 0 25-10t11-25-11-25-25-10h-358q-14 0-25 10t-11 25 11 25 25 10h144v75q-70 7-132 45l-142-142q-6-6-12-6t-14 6l-45 46q-5 6-5 12t5 14l689 688q5 6 12 6t14-6l45-46q5-6 5-12t-5-14z m-212 75l-347-347v286q0 73 53 126t126 52q57 0 103-33t65-84z" horiz-adv-x="785.7" />
<glyph glyph-name="cancel" unicode="&#xe811;" d="m88 115l235 235-235 235 177 177 235-235 235 235 177-177-235-235 235-235-177-177-235 235-235-235z" horiz-adv-x="1000" />
<glyph glyph-name="user-secret" unicode="&#xe812;" d="m322-8l53 251-53 71-72 36z m142 0l72 358-72-36-53-71z m89 565q0 1-1 3-6 4-54 4-40 0-93-11-4 0-12 0t-12 0q-54 11-93 11-48 0-54-4-1-2-1-3 0-10 1-15 2-2 4-4t5-6q1-2 4-12t4-11 4-10 5-9 5-7 7-8 7-6 10-4 12-2 13-1q20 0 34 6t17 17 8 19 7 17 9 7h7q7 0 10-7t7-17 8-19 17-17 34-6q7 0 13 1t12 2 10 4 7 6 7 8 5 7 5 9 4 10 3 11 5 12q1 4 5 6t4 4q1 5 1 15z m233-491q0-68-41-106t-108-38h-488q-67 0-108 38t-41 106q0 34 3 66t10 70 21 69 35 57 53 42l-50 123h119q-13 35-13 71 0 7 2 19-108 21-108 53 0 32 116 55 10 35 30 75t39 63q17 21 42 21 17 0 47-17t47-18 47 18 47 17q24 0 42-21 20-23 39-63t30-75q116-23 116-55 0-32-108-53 4-46-11-90h119l-46-125q35-19 60-55t37-80 16-84 5-83z" horiz-adv-x="857.1" />
<glyph glyph-name="man" unicode="&#xe813;" d="m42-88v101q0 32 8 50t33 30q201 116 292 155v105q-42 30-42 92v69q-35 14-59 29t-23 20q0 14 7 25t15 12h47l61 274q-1 10 4 14t15 0l100-28q8-3 21-4t22 3l99 32q9 3 15 0t3-13l62-278h46q10 0 16-12t7-25q0-6-23-20t-60-29v-69q0-62-41-92v-105q77-31 291-155 25-14 34-30t8-50v-101q0-9-6-15t-15-5h-916q-9 0-15 5t-6 15z" horiz-adv-x="1000" />
<glyph glyph-name="woman" unicode="&#xe814;" d="m42-88v51q0 44 47 70 12 6 126 48t160 65v97q-56 3-107 30t-75 54q-7 7-8 15t3 15 12 16 18 18 21 21 21 22q30 35 39 73t9 111q0 35 15 68t37 61 61 43 79 18q43 0 79-18t61-43 38-61 14-68q0-74 9-111t39-74q9-10 21-22t22-20 17-18 12-16 3-15-7-15q-25-28-76-54t-107-30v-97q47-23 161-65t126-48q23-13 35-30t11-40v-51q0-9-5-15t-15-5h-875q-9 0-15 5t-6 15z" horiz-adv-x="1000" />
<glyph glyph-name="skull" unicode="&#xe815;" d="m80 488q0 9 1 35t6 50 16 58 32 63 51 59 74 50 104 34 136 13 136-12 104-35 74-50 51-60 32-61 16-59 6-50 1-35l-1-13-44-83-42-209-145-41-49-84h-277l-49 84-146 41-42 209-44 83q0 5-1 13z m128-388h42l125-125h250l125 125h42l-84-208h-41l-42-42h-250l-42 42h-41z m42 221q0-23 16-38t38-16h42q22 0 43 15t29 36l22 65q8 20-2 35t-34 15h-100q-21 0-38-15t-16-39v-58z m186-169q6-10 22-10h84q17 0 22 10t-4 24l-37 57q-9 13-23 13t-22-13l-38-57q-10-14-4-24z m124 231l23-65q7-21 28-36t43-15h42q22 0 38 16t16 38v58q0 22-16 39t-38 15h-100q-22 0-33-15t-3-35z" horiz-adv-x="1000" />
<glyph glyph-name="register" unicode="&#xe816;" d="m0 350q0 135 67 249t181 181 249 67 249-67 181-181 66-249-66-249-181-181-249-67-249 67-181 181-67 249z m152 0q0-142 101-244t244-101 243 101 102 244-102 243-243 102-244-102-101-243z m181-167v334h250l84-84v-83h-84v83h-166v-83h166v-83h-166v-84h-84z m250 0v84h84v-84h-84z" horiz-adv-x="1000" />
<glyph glyph-name="boy" unicode="&#xe817;" d="m42-88v98q0 33 8 51t33 30q201 117 292 156v156q-42 31-42 94v124q0 52 20 94t65 68 103 25 104-25 63-68 20-94v-124q0-63-41-93v-157q77-32 291-156 25-13 34-30t8-51v-98q0-9-6-15t-15-5h-916q-9 0-15 5t-6 15z" horiz-adv-x="1000" />
<glyph glyph-name="girl" unicode="&#xe818;" d="m83-59q0 4 2 18t8 27 20 29 35 28q9 5 50 35t91 61 86 50v84l-103 39-87-131-95 97 144 48 58 107v167q0 55 26 102t74 77 108 29q54 0 100-29t74-77 34-102v-167l57-107 145-48-95-97-86 131-104-39v-84q37-19 86-50t91-61 51-35q20-12 35-28t19-29 8-26 3-20l-1-7v-21q0-9-7-15t-14-5h-792q-9 0-15 5t-6 15v21h0q0 3 0 8z" horiz-adv-x="1000" />
<glyph glyph-name="add" unicode="&#xe819;" d="m-167 371v42q0 8 6 15t15 5h146v146q0 9 6 15t15 6h42q8 0 15-6t5-15v-146h146q9 0 15-5t6-15v-42q0-8-6-15t-15-6h-146v-146q0-9-5-15t-15-6h-42q-8 0-15 6t-6 15v146h-146q-9 0-15 6t-6 15z m209-459v98q0 33 8 51t33 30q201 117 292 156v156q-42 31-42 94v124q0 52 20 94t65 68 103 25 104-25 63-68 20-94v-124q0-63-41-93v-157q77-32 291-156 25-13 34-30t8-51v-98q0-9-6-15t-15-5h-916q-9 0-15 5t-6 15z" horiz-adv-x="1000" />
<glyph glyph-name="remove" unicode="&#xe81a;" d="m-83 371q0-8 5-15t15-6h292q9 0 15 6t6 15v42q0 8-6 15t-15 5h-292q-9 0-15-5t-5-15v-42z m125-459v98q0 33 8 51t33 30q201 117 292 156v156q-42 31-42 94v124q0 52 20 94t65 68 103 25 104-25 63-68 20-94v-124q0-63-41-93v-157q77-32 291-156 25-13 34-30t8-51v-98q0-9-6-15t-15-5h-916q-10 0-15 5t-6 15z" horiz-adv-x="1000" />
<glyph glyph-name="sign-out" unicode="&#xe81b;" d="m63 308q0 118 57 218t157 157q23 17 40 15t16-28v-74q0-12-3-20t-7-12-10-6-8-5q-55-45-86-108t-31-137q0-63 25-120t66-100 100-67 121-25q64 0 122 25t99 67 67 99 25 121q0 73-31 136t-86 108q-1 1-7 4t-7 6-8 7-6 12-1 15v77q0 15 8 21t20 3 25-11q100-58 158-158t60-220q0-88-35-170t-94-139-139-93-170-35-170 35-139 93-93 139-35 170z m354 167v333q0 17 12 30t29 12h84q17 0 29-12t12-30v-333q0-17-12-29t-29-13h-84q-16 0-29 13t-12 29z" horiz-adv-x="1000" />
<glyph glyph-name="home" unicode="&#xe81c;" d="m522 819q321-279 500-429 20-16 20-40 0-21-15-37t-37-15l-105 0 0-364q0-22-15-37t-36-15l-156 0q-21 0-37 15t-16 37l0 208-208 0 0-208q0-22-15-37t-37-15l-156 0q-21 0-37 15t-15 37l0 364-104 0q-21 0-37 15t-16 37 19 40z" horiz-adv-x="1041" />
<glyph glyph-name="search" unicode="&#xe81d;" d="m11 375q-24 87 0 173t87 150q49 49 110 74t128 25q65 0 127-25t110-74q52-51 76-119t22-136-36-133q28-8 48-28l175-174q35-35 35-85t-35-85q-35-35-85-35t-85 35l-173 174q-22 21-30 50-70-36-149-36-66 0-128 25t-110 73q-65 64-87 151z m102 86q0-93 65-158 65-65 158-65 92 0 157 65t66 158-66 158q-66 65-157 65-93 0-158-65-65-66-65-158z" horiz-adv-x="892.6" />
<glyph glyph-name="volume-off" unicode="&#xe81e;" d="m0 552l305 0 345 281 0-966-345 280-229 0z m713-284q0 4 2 6l76 76-76 77q-2 1-2 6t2 5l53 53q1 2 5 2t6-2l76-76 77 76q4 2 6 2t5-2l55-53q2-2 2-5t-2-6l-76-77 76-76q2-4 2-6t-2-5l-55-55q-1-2-5-2t-6 2l-77 78-76-78q-1-2-5-2t-6 2l-53 55q-2 1-2 5z" horiz-adv-x="1000" />
<glyph glyph-name="volume-1" unicode="&#xe81f;" d="m0 141l0 418 237 0 356 291 0-1000-356 291-237 0z m656 37q74 75 74 174 0 104-74 180l72 74q104-106 108-256 0-144-108-246z" horiz-adv-x="836" />
<glyph glyph-name="volume-2" unicode="&#xe820;" d="m0 142l0 416 237 0 353 289 0-995-353 290-237 0z m653 36q72 74 72 175t-72 178l70 74q105-106 107-254 0-144-107-246z m116-120q124 120 124 295t-124 299l77 74q154-154 154-372t-154-372z" horiz-adv-x="1000" />
<glyph glyph-name="volume-3" unicode="&#xe821;" d="m0 169l0 359 203 0 307 250 0-857-307 248-203 0z m563 34q62 62 62 150t-62 152l60 64q90-89 92-218 0-125-92-213z m101-106q105 106 105 256t-105 258l66 62q132-133 132-320t-132-320z m99-98q147 147 147 354t-147 353l63 65q82-83 128-190t46-228-46-228-128-190z" horiz-adv-x="1000" />
<glyph glyph-name="mail" unicode="&#xe822;" d="m0-29l324 342 176-100 176 100 324-342-1000 0z m0 113l0 414 254-145z m0 504l0 141 1000 0 0-141-500-285z m746-235l254 145 0-414z" horiz-adv-x="1000" />
<glyph glyph-name="pencil" unicode="&#xe823;" d="m203-8l50 51-130 132-51-51v-60h71v-72h60z m291 519q0 12-11 12-6 0-10-4l-303-302q-3-4-3-9 0-13 11-13 6 0 10 3l303 303q3 4 3 10z m-30 107l233-232-464-464h-233v231z m381-54q0-29-20-50l-92-92-233 231 93 93q20 21 50 21 30 0 50-21l132-131q20-22 20-51z" horiz-adv-x="857.1" />
<glyph glyph-name="cog" unicode="&#xe824;" d="m0 272l0 156 150 16q14 44 38 88l-96 117 109 109 117-95q41 23 88 37l16 150 156 0 15-150q45-14 89-37l117 95 109-109-95-117q23-44 37-88l150-16 0-156-150-15q-14-48-37-89l95-117-109-109-117 96q-44-24-89-38l-15-150-156 0-16 150q-47 14-88 38l-117-96-109 109 96 117q-24 41-38 89z m355 78q0-61 43-102t102-42 103 42 41 102-41 103-103 42-102-42-43-103z" horiz-adv-x="1000" />
<glyph glyph-name="emo-laugh" unicode="&#xe825;" d="m207 742c-79 0-153-39-197-103-18-24-12-57 13-74 24-17 58-12 75 13 43 61 127 74 186 31l0 0c4-2 8-5 11-9l1 0 1-1c3-3 7-7 11-11l0 0 0-1 0 1 1-2 0 0c20-23 54-24 76-4 23 19 24 53 4 75-45 53-112 85-182 85z m485 0c-79 0-152-39-197-103-17-24-12-57 13-74 25-17 58-12 75 13 43 61 127 74 186 31l0 0c4-2 8-5 12-9l0 0 1-1c4-3 7-7 11-11l0 0 0-1 0 1 1-2 0 0c20-23 54-24 76-4 23 19 24 53 4 75-45 53-112 85-182 85z m148-421l-765 0c-29 0-52-24-52-53 4-201 239-352 422-356 187-2 443 157 448 356 0 30-24 53-53 53z m-700-106l634 0c-61-121-190-201-331-197-130 5-245 83-303 197z" horiz-adv-x="893" />
<glyph glyph-name="emo-squint" unicode="&#xe826;" d="m128 607c-30 0-54-24-54-54 0-30 24-54 54-54l267 0c30 0 53 24 53 54 0 30-23 54-53 54l-267 0z m476 0c-29 0-54-24-54-54 0-30 25-54 54-54l268 0c29 0 53 24 53 54 0 30-24 54-53 54l-268 0z m342-406c-13 0-27-5-37-16-4-4-8-8-12-12-110-109-254-164-396-165-142-1-284 50-397 155l-2 3-12 12c-21 20-54 20-75 0-20-22-20-56 1-77 3-3 8-8 14-14l3-3c132-124 301-186 469-184 169 2 337 67 468 195 4 5 9 9 14 14 20 22 20 56-1 77-10 10-24 16-37 15z" horiz-adv-x="999" />
<glyph glyph-name="emo-shoot" unicode="&#xe827;" d="m53 850c-20 0-39-11-48-30-13-27-1-58 25-72l153-80c-4-45 7-92 33-128 21-27 52-49 87-49 90 0 127 107 122 180-120 52-232 114-349 174-7 3-15 5-23 5z m520-169c-30 0-55-24-55-54s25-54 55-54l185 0c30 0 54 25 54 54 0 30-24 54-54 54l-185 0z m618-88c-40 0-78-15-104-42l-3-2c-5-6-10-11-14-17-12-15-20-32-24-51-18-7-36-14-53-23-27-13-55-30-82-48l0 0c-73-50-163-159-201-265-8-22-14-44-17-66-3-21-4-42-1-63l0-3 0-2c9-68 36-114 78-139 8-6 18-10 28-14 8-2 17-4 25-6 3 0 5 0 6 0l4 0 0 0 0 0c55-4 100-2 146-1 21 1 41 1 60 1 119 1 143 92 168 185 6 25 13 51 22 71l219 0c85 0 127 45 148 100 3 10 7 21 8 32l289-1 2 0c29 0 53 24 53 52l0 154 0 0 0 67 0 0 0 1c-1 20-10 39-23 52-12 12-27 20-44 22-3 1-7 1-10 1l-49 0 0 0-1 0c-18 0-36-8-49-20l0 0-1 0-3-2 0-1c-9-8-15-20-19-32l-162 0c-14 18-31 33-51 43l0 0c-5 2-10 5-14 7l-4 1c-15 5-30 9-45 9-3 0-5 0-7 0l-275 0z m278-105c4 0 8 0 12-2l2-1 0 0 0 0c1 0 3-1 4-2l0 0 0 0c10-5 17-13 21-23 9-22 31-34 53-32l237 0c19 0 35 10 45 25l0-8 0 0 0-101-285 1c-30 0-53-23-53-52l0 0c0-3-1-8-1-14l0 0 0 0 0-1c-1-5-1-11-2-17-2-6-3-11-5-17-6-17-20-31-49-31l-249 0c-19 0-36-10-45-25-4-7-9-14-12-20l0 0c-6 3-35-98-37-105-14-53-28-106-67-106-22 0-41 0-61-1l0 0c-43-1-85-3-136 1l0 0-3 0-2 0c-2 0-3 0-5 1-3 1-4 2-7 3-13 8-24 30-28 64l0 1-1 1c-1 11 0 23 2 36 2 15 6 31 11 46 32 87 105 174 162 214l0 0 0 0c23 16 47 30 69 41 24 12 47 21 70 29 23 7 36 28 36 50l0 0 0 0 0 0 0 2c1 9 4 18 9 25 2 2 4 3 5 5 9 8 19 13 32 13l275 0 3 0z m-1027-175c-123 0-240-44-334-120-17-15-35-31-50-49-17-17-32-36-45-55-17-24-11-57 13-74 23-17 57-11 73 13 11 16 24 30 36 45 13 13 26 26 41 38 74 61 167 96 266 96l0 0 0 0c18 0 36-2 55-4 1 0 1 0 8-1 16-3 31-6 45-9 28-9 58 9 65 37 8 28-9 58-37 65-19 5-38 8-57 12-1 0-3 0-11 1-22 3-45 5-68 5l0 0 0 0z" horiz-adv-x="1948" />
<glyph glyph-name="emo-cry" unicode="&#xe828;" d="m278 787c-7 0-15-2-23-5l-127-62-80-37c-3-2-5-3-7-4-1-6-1-11-1-16l0 0 0-1 0 0c0-69 40-162 122-163l0 0 1 0 0 0c34 1 65 19 86 49 26 36 37 83 34 129l19 9c26 12 37 44 25 71-9 19-29 30-49 30z m212 0c-20 0-39-11-47-30-14-27-2-59 25-71l17-9c-2-46 8-93 34-129 23-30 54-48 88-49l0 0 0 0 0 0c82 1 121 94 121 163l0 0 0 1 0 0c0 5 0 10 0 16-2 1-5 2-7 4l-80 37-128 62c-7 3-15 5-23 5z m279-303c-7 0-15-4-21-15-42-72-96-259 27-259 123 1 73 182 16 261-6 7-14 13-22 13z m-512-137c-57 0-113-9-165-26-11-3-21-8-31-11-11-5-21-9-30-13l0 0-1 0 0 0c-27-14-38-44-25-71 13-27 44-38 70-25l0-1c9 4 18 8 24 11 9 3 17 6 25 9 44 13 88 21 133 21 51 0 101-9 148-27 19-6 38-15 55-24 91-49 163-130 200-232 10-27 40-41 68-31 27 10 41 40 32 67-47 127-137 229-250 289-22 12-45 22-68 31-59 21-121 33-185 33z" horiz-adv-x="851" />
<glyph glyph-name="emo-saint" unicode="&#xe829;" d="m489 841c-115 0-230-10-321-29-104-22-167-58-168-103l0 0 0 0 0-1c1-44 64-80 168-101l0 0c190-40 474-40 665 0 102 21 166 57 166 102l0 0 0 0 0 0c0 45-64 81-166 103l0-1c-99 21-222 31-344 30z m11-88c193 0 350-20 350-44 0-24-157-43-350-43-194 0-351 19-351 43 0 24 158 44 351 44z m-334-360c-30 0-54-24-54-54s24-54 54-54l186 0c30 0 54 24 54 54 0 30-24 54-54 54l-186 0z m482 0c-30 0-55-24-55-54s25-54 55-54l186 0c29 0 54 24 54 54 0 30-25 54-54 54l-186 0z m151-301c-13 0-26-6-37-16-1-1-1-2-2-3-10-10-20-20-31-29-11-9-22-18-34-26-62-41-135-61-211-58l0-1c-46 3-92 13-134 33-7 4-14 7-20 11-33 18-64 42-91 71-20 22-54 23-75 4-21-20-23-55-3-75 34-38 74-70 118-94 9-5 19-9 27-13 54-25 113-39 174-43l0 0c98-4 193 24 273 76 15 11 30 22 45 34 15 12 28 25 40 39 20 21 20 54-1 75-10 10-24 15-38 15z" horiz-adv-x="999" />
<glyph glyph-name="emo-angry" unicode="&#xe82a;" d="m53 738c-20 0-39-10-48-30-13-26-1-58 25-71l153-80c-4-46 7-93 33-129 21-28 52-49 87-49 90 0 127 108 122 180-120 53-232 114-349 174-7 4-15 5-23 5z m894 0c-8 0-16-1-24-5-116-60-228-121-348-174-5-72 31-180 122-180 36 0 66 21 86 49 26 36 38 83 35 129l151 80c27 13 39 45 25 71-9 20-27 30-47 30z m-453-537c-165 0-331-62-461-183l-2-4c-6-6-11-10-15-14-21-21-21-55-1-76 21-22 54-22 75-1l13 12 2 2c112 106 254 158 396 156 143 0 286-56 397-165 4-4 7-8 11-12 21-21 54-21 74 0 21 21 22 55 1 76-5 5-9 10-14 14-130 128-299 194-468 195-3 0-5 0-8 0z" horiz-adv-x="1000" />
<glyph glyph-name="emo-grin" unicode="&#xe82b;" d="m197 802c-61 0-110-65-110-145 0-79 49-144 110-144s110 65 110 144c0 80-49 145-110 145z m476 0c-60 0-110-65-110-145 0-79 50-144 110-144 60 0 110 65 110 144 0 80-50 145-110 145z m144-481l-765 0c-29 0-52-24-52-53 3-201 238-352 422-356 186-2 442 157 448 356 0 30-24 53-53 53z m-699-106l633 0c-62-121-190-201-331-197-130 5-246 83-302 197z" horiz-adv-x="870" />
<glyph glyph-name="emo-beer" unicode="&#xe82c;" d="m1363 850c-29 0-58-7-85-20-4-2-8-4-12-7-38-22-37-12-80-14-32-1-63-12-89-29-26-16-49-38-64-64-17-27-27-58-25-89 0-26 22-46 48-46l0-1 619 0c26 0 48 22 48 48 3 32-6 64-24 91-15 24-36 45-61 61-24 15-52 26-81 28-21 3-42 1-62-5-3 3-7 5-10 8-36 26-78 39-122 39z m-695-47c-60 0-110-65-110-145 0-80 50-145 110-145 61 0 111 65 111 145 0 80-50 145-111 145z m695-50c30 0 60-11 84-37 15-19 42-24 63-11 12 7 24 9 38 8 13-1 27-7 39-15 9-5 17-13 24-20l-488 0c8 7 16 15 25 20 14 9 28 15 42 15 10 0 21-2 31-8 19-12 46-9 62 9 21 25 50 39 80 39z m-1040-49l-269 0c-30 0-54-24-54-54 0-30 24-54 54-54l269 0c30 0 55 24 55 54 0 30-25 54-55 54z m727-190c-23 0-42-19-42-42l0-4 0-411 0 0 0-1 0 0c0-57 23-109 60-145l0 0 0 0 0-1c37-37 89-60 145-60l0 0 220 0c2 0 4 0 5 0 14 1 27 2 40 5 14 3 27 8 40 14 53 24 95 72 112 129l30 0 0 0c35 0 68 15 91 39 23 23 37 55 37 90l0 1 0 0 0 0 1 257 0 0-1 0c0 36-14 68-37 92l0 0c-23 23-55 37-91 37l0 0 0 0-610 0z m591-98c11 0 21-4 28-12l0 0 0 0c8-7 12-17 12-28l0 0 0 0 0-250 0 0 0 0c0-11-5-21-12-28-7-8-17-12-28-12l0 0-61 0 0 0c-20 0-37-16-39-36-4-41-29-75-65-92-8-3-14-6-22-7-6-2-14-3-21-3l-2 0-204 0 0 0c-30 0-58 13-79 33l0 0c-20 21-33 48-33 79l0 0 0 0 0 0 1 356 102 0 0-349c0-35 69-34 69 0l0 349 102 0 0-353c0-35 69-34 69 0l0 353 183 0 0 0z m-80-60l0-208 32 0c20 0 37 17 37 37l0 133c0 21-17 38-37 38l-32 0z m-1502-15c-6 0-12-1-18-3-28-10-43-41-33-69 47-127 138-229 252-291 23-11 45-22 69-31 59-21 121-33 186-33l0 0 0 0 0 0c57 0 113 9 167 27 10 3 21 6 31 11 10 4 20 8 30 13l0 0 0 0 0 0c27 12 38 45 25 71-12 27-44 38-70 26l0 0c-9-4-17-8-25-10-8-4-16-7-25-9-43-15-88-22-133-22l0 1 0 0 0-1c-52 0-102 9-149 27-19 7-38 15-55 25-92 49-165 130-202 232-8 23-28 36-50 36z" horiz-adv-x="1789" />
<glyph glyph-name="emo-displeased" unicode="&#xe82d;" d="m171 800c-61 0-110-65-110-144 0-80 49-144 110-144s109 64 109 144c0 79-49 144-109 144z m476 0c-60 0-109-65-109-144 0-80 49-144 109-144 61 0 110 64 110 144 0 79-49 144-110 144z m-594-447c-18 0-35-10-45-27-16-26-7-59 20-73l708-380c27-15 59-6 74 20 15 26 7 59-20 74l-708 379c-9 5-19 7-29 7z" horiz-adv-x="817" />
<glyph glyph-name="emo-sunglasses" unicode="&#xe82e;" d="m495 745c-154 0-308 0-462 0-19 0-33-15-33-32 3-154 129-307 278-310 84-1 164 35 219 95 55-60 134-96 218-95 148 3 273 156 275 310 0 17-14 32-32 32-155 0-309 0-463 0z m319-510c-17 0-35-9-45-25l0 0c-1-2-1-2-1-3-7-12-15-23-24-34-10-12-19-23-29-32-54-51-127-80-202-80l0 0 0 0c-22 0-44 2-65 7-3 0-6 1-10 2-17 5-34 11-50 18-27 13-59 2-71-25-13-26-1-58 26-71 21-10 45-18 69-25 4 0 8-1 13-3 29-6 58-9 88-9l0 0 0 0c103 0 200 39 274 108 15 15 28 29 40 44 11 14 22 30 32 46 0 1 1 2 1 2 15 25 7 58-18 73-9 5-19 8-28 7z" horiz-adv-x="990" />
<glyph glyph-name="emo-coffee" unicode="&#xe82f;" d="m1234 850c-16 0-34-8-44-23-54-79-24-144 3-204 15-29 27-56 6-72-23-18-28-51-11-74 19-24 52-28 75-10 89 67 60 131 27 201-16 33-32 70-12 100 16 24 10 56-15 73-8 6-19 9-29 9z m-1021-121c-80 0-157-39-203-105-18-25-12-59 13-76 25-18 60-12 77 13 45 63 132 77 193 32l0 0c4-2 7-5 11-9l1-1 1 0c3-4 7-8 10-11l2-1 0-1 0 0 0-1 0-1c21-22 56-24 79-3 22 20 24 55 4 78-46 54-116 86-188 86z m499 0c-80 0-156-39-203-105-17-25-11-59 14-76 25-18 60-12 77 13 44 63 131 77 193 32l0 0c3-2 7-5 10-9l1-1 1 0c3-4 8-8 11-11l1-1 0-1 0 0 1-1 0-1c20-22 55-24 78-3 22 20 25 55 4 78-46 54-116 86-188 86z m206-346c-24 0-44-20-44-43l0-3 0-276 0 0 0 0 0 0c0-58 24-111 62-149l0 0 0 0 1 0c37-38 90-62 147-62l0 0 225 0c2 0 4 0 6 0 13 1 27 2 39 5 15 3 29 8 42 14 55 26 97 74 114 133l32 0 0 0c36 1 69 15 92 39 24 23 39 57 39 92l0 0 0 0 0 119 0 0c0 36-15 69-39 93l0 0c-23 23-56 38-92 38l0 0 0 0-624 0z m604-100c11 0 21-5 28-12l1 0 0 0c7-8 12-18 12-29l0 0 0-109 0 0c0-12-5-22-12-30-8-7-18-12-29-12l0 1-62 0 0-1c-21 0-38-16-41-37-3-41-30-77-66-93-7-4-15-6-22-8-7-1-14-2-21-2l-3 0-209 0 0 0c-30 0-59 12-80 32l0 1c-20 21-34 49-34 81l0 0 0 0 0 0 0 218 538 0 0 0z m-82-55l0-96 33 0c20 0 38 17 38 38l0 20c0 21-18 38-38 38l-33 0z m-1131-12c-31 0-55-25-55-55s24-54 55-54l297 0c30 0 54 24 54 54s-24 55-54 55l-297 0z" horiz-adv-x="1673" />
<glyph glyph-name="emo-surprised" unicode="&#xe830;" d="m110 849c-61 0-110-65-110-145 0-79 49-144 110-144s109 65 109 144c0 80-49 145-109 145z m476 0c-60 0-109-65-109-145 0-79 49-144 109-144 61 0 110 65 110 144 0 80-49 145-110 145z m-255-431l0-1c-56 0-107-23-143-59-37-37-60-88-60-145l0 0 0-160 0 0c0-56 23-107 60-144 36-37 87-60 143-60l0 0 34 0 0 0c56 0 107 23 143 59 37 37 60 89 60 145l0 0 0 161 0 0c0 56-23 107-60 144-36 36-87 59-143 59l0 1-34 0z m0-108l0-1 34 0 0 1c26 0 50-11 68-28 17-18 28-42 28-68l0 0 0-161 0 0c0-27-11-50-28-68-18-18-42-28-68-28l0 0-34 0 0 0c-26 0-50 10-68 28-17 18-28 41-28 68l0 0 0 160 0 0c0 27 11 51 28 69 18 17 42 28 68 28z" horiz-adv-x="696" />
<glyph glyph-name="emo-tongue" unicode="&#xe831;" d="m174 800c-61 0-110-65-110-144 0-80 49-144 110-144s109 64 109 144c0 79-49 144-109 144z m476 0c-60 0-109-65-109-144 0-80 49-144 109-144 61 0 110 64 110 144 0 79-49 144-110 144z m121-560l-718-1c-29 0-53-24-53-53 0-30 24-53 53-53l140 0 0-75c0-55 20-108 60-148 46-47 103-60 165-60 57 0 111 17 154 59 40 41 59 94 59 149l0 75 140 0c29 0 53 24 53 54 0 29-24 53-53 53z m-471-108l224 0 0-73c0-27-6-53-28-74-38-38-129-39-168 0-20 21-28 45-28 73l0 74z" horiz-adv-x="824" />
<glyph glyph-name="emo-devil" unicode="&#xe832;" d="m112 850c-2 0-4 0-5 0-2 0-3 0-4-1l0 0c-1 0-2 0-3-1-1 0-1 0-2 0-7-1-15-5-23-11-2-1-3-3-5-4-1 0-2-2-3-3l-1 0 0 0 0 0 0 0c-11-11-20-22-28-34-2-3-3-4-5-7-1-2-3-4-4-6l0 0 0 0 0 0c-6-13-12-25-16-39-1-2-2-5-3-7-1-2-2-4-2-8l0 0c-17-65-5-136 19-188 4-10 9-19 14-28 6-8 11-16 17-23l0 0 0 0 0 0 0 0c5-6 12-9 20-10 7-1 15 2 20 7l1 0c1 1 3 2 4 4l0 0c0 0 0 0 0 0 0 1 0 1 1 1 4 6 8 11 11 15l3 3 2 3 0 0c4 5 8 10 13 14l2 2 2 3 0 0 0 0 1 1 0 0c21 23 46 44 73 61 6 4 11 8 16 10 5 4 11 6 16 9 0 0 0 0 0 1 8 4 13 10 15 18 2 6 1 15-3 21l0 0c-2 5-6 10-11 12l0 0 0 0c0 0-1 1-1 1 0 0 0 1-1 1-1 0-2 1-3 1l0 0 0 0 0 0 0 0c-7 2-13 5-20 8-1 1-1 1-3 2l-3 1c0 0 0 0 0 1l0 0c-6 3-12 6-16 10-1 0-2 1-4 2l-1 1c0 0 0 1-1 1l0 0 0 0 0 0c-23 19-36 43-40 67 0 4-1 9-1 14 0 5 0 10 1 14l0 0 0 1c2 9 2 18 0 25 0 2-1 3-1 5-1 1-1 3-2 4l0 0 0 0 0 0c-3 9-8 14-14 19-1 0-3 1-4 2-2 1-2 2-4 2l0 0 0 0c-5 2-9 3-14 3z m776 0c-5 0-10-1-14-3l-1 0 0 0c0 0-2-1-3-2-2-1-2-2-4-2-6-5-11-10-14-19l0 0-1 0 0 0c0-1-1-3-1-4-1-2-1-3-2-5 0-7 0-16 0-25l0-1 0 0c1-4 2-9 2-14 0-5-1-10-2-14-3-24-16-48-39-67l0 0-1 0 0 0c0 0 0-1 0-1l-2-1c-1-1-3-2-3-2-5-4-10-7-15-10l0 0c0-1-1-1-1-1l-3-1c-1-1-2-1-4-2-6-3-12-6-19-8l0 0 0 0 0 0 0 0c-1 0-2-1-3-1 0 0 0-1-1-1 0 0-1-1-2-1l0 0 0 0c-4-2-7-7-11-12l0 0c-3-6-4-15-1-21 1-8 6-14 13-18 1-1 1-1 2-1 5-3 10-5 15-9 5-2 10-6 15-10 28-17 52-38 75-61l0 0 0-1 0 0 0 0 2-3 3-2c4-4 8-9 12-14l0 0 3-3 1-3c4-4 9-9 12-15 0 0 1 0 1-1 0 0 0 0 0 0l0 0c1-2 2-3 4-4l0 0c6-5 14-8 21-7 7 1 15 4 20 10l0 0 0 0 0 0 1 0c5 7 10 15 15 23 6 9 11 18 15 28 23 52 36 123 19 188l0 0c-1 4-2 6-2 8-1 2-2 5-2 7-5 14-10 26-17 39l0 0 0 0 0 0c-2 2-3 4-4 6-2 3-4 4-5 7-8 12-17 23-29 34l0 0 0 0 0 0 0 0c-1 1-2 3-4 3-1 1-2 3-4 4-7 6-16 10-24 11 0 0-1 0-1 0-1 1-2 1-2 1l0 0c-2 1-3 1-5 1-1 0-3 0-5 0z m-665-388l-2-2 0 0c-46-62-46-164 1-227 21-30 52-49 86-49l0-1 1 0 0 1c82 0 122 94 122 162l0 0 0 2 0 0c0 5 0 10-1 15-2 1-4 2-7 4l-200 95z m555 0l-201-95c-3-2-5-3-7-4-1-5-1-10-1-15l0 0 0-2 0 0c0-68 39-162 122-162l0-1 0 0 1 1c34 0 65 19 86 49 46 63 46 165 0 227l0 0 0 2z m21-374c-13 0-26-5-37-15l0 0c0-1-1-2-2-3-10-10-20-20-31-29-11-9-22-18-34-26-62-41-135-62-211-58l0 0 0 0c-46 1-91 13-134 32-7 3-13 7-20 10-33 19-64 43-91 72-20 22-53 23-75 3-21-20-23-53-3-75 34-37 74-68 119-92 8-5 18-10 26-14 54-26 113-40 174-42l0-1 0 0c98-4 193 23 273 77 16 10 31 20 45 33 15 12 28 25 40 38 20 22 20 55 0 75-11 10-25 15-39 15z" horiz-adv-x="1000" />
<glyph glyph-name="emo-thumbsup" unicode="&#xe833;" d="m743 850c-60 0-108-64-108-143 0-79 48-144 108-144 60 0 110 65 110 144 0 79-50 143-110 143z m-600-81c-30 0-54-23-54-53s24-53 54-53l290 0c29 0 53 24 53 53s-24 53-53 53l-290 0z m1040-20c-17 0-35-2-55-7-112-50-109-174-93-266l-131 0c-68 1-124-53-124-123 0-35 8-70 30-98-10-12-17-24-23-38-18-48-10-105 23-144-5-5-18-27-18-27-29-58-10-144 46-179 17-11 39-17 64-17l378 0c91 3 168 76 167 168l0 288c0 49-30 108-49 152-25 57-49 115-73 173-30 72-71 118-142 118z m2-115c30 1 43-47 51-67 21-52 42-129 64-180 21-49 38-89 38-104l0-255c0-42-35-73-75-75l-333 0c-17 0-26 9-30 24-5 15-7 34 4 47 6 9 16 13 26 13 21-1 38 17 38 38 0 21-16 38-37 38-9 0-18 4-24 10-14 15-16 50 0 65 3 4 7 6 12 8 4 2 8 2 12 2 21 0 37 17 37 38 0 21-16 37-37 37-28 0-33 30-33 50 0 13 6 24 16 30-1 2 189 4 210 4 28 0 47 30 34 56-28 50-45 206 20 220 3 0 5 1 7 1z m-1132-264c-8 0-15-2-21-4-27-13-40-44-27-71 67-147 194-254 344-297 29-8 59-14 90-17 30-4 61-4 91-2l3 0 2 0c30 3 52 29 50 58-2 30-28 51-57 49l-3 0-1 0c-25-2-50-1-74 2-24 2-48 6-72 13-120 34-222 120-275 238-10 20-30 32-50 31z" horiz-adv-x="1447" />
<glyph glyph-name="emo-sleep" unicode="&#xe834;" d="m53 693c-10 0-21-4-30-10-25-17-31-50-13-75 44-64 118-102 197-102 70 0 137 32 182 85 20 22 19 56-4 75-22 20-56 18-76-3l0-1-1-1 0 0 0-1 0-1c-4-3-8-7-11-11l-1 0-1 0c-3-4-7-7-11-10l0 0c-59-42-143-30-186 32-11 15-28 23-45 23z m485 0c-10 0-21-4-30-10-25-17-30-50-13-75 45-64 118-102 197-102 70 0 137 32 182 85 20 22 19 56-4 75-22 20-56 18-76-3l0-1-1-1 0 0 0-1 0-1c-4-3-8-7-11-11l-1 0 0 0c-4-4-8-7-12-10l0 0c-59-42-143-30-186 32-11 15-28 23-45 23z m-435-579c-30 0-54-24-54-53 0-29 24-53 54-53l682 0c29 0 53 23 53 53s-24 53-53 53l-682 0z" horiz-adv-x="888" />
<glyph glyph-name="emo-unhappy" unicode="&#xe835;" d="m262 800c-61 0-110-65-110-144 0-80 49-144 110-144s109 64 109 144c0 79-49 144-109 144z m476 0c-60 0-110-65-110-144 0-80 50-144 110-144 60 0 110 64 110 144 0 79-50 144-110 144z m-245-599c-165 0-330-62-460-183l-3-4c-6-6-11-10-14-14-21-21-21-55-1-76 21-22 54-22 75-1l12 12 2 2c113 106 255 158 397 156 142 0 286-56 396-165 4-4 8-8 12-12 20-21 54-21 74 0 21 21 21 55 1 76-5 5-10 10-14 14-131 128-299 194-468 195-3 0-5 0-9 0z" horiz-adv-x="999" />
<glyph glyph-name="emo-wink2" unicode="&#xe836;" d="m664 800c-61 0-110-65-110-144 0-80 49-144 110-144 60 0 109 64 109 144 0 79-49 144-109 144z m-343-98l-267 0c-30 0-54-24-54-54 0-30 24-54 54-54l267 0c30 0 54 24 54 54 0 30-24 54-54 54z m-263-361c-5 0-11-1-18-3-27-10-42-40-32-68 47-127 137-228 250-289 22-12 45-22 69-31 58-21 120-33 185-33 56 0 111 10 165 26 11 4 21 8 31 12 10 4 20 8 30 12l0 0 0 0 0 0c26 14 38 46 25 71-13 27-44 38-70 25l0 1c-9-4-17-8-25-11-7-3-15-5-24-9-43-13-87-21-132-21-52 0-102 10-149 27-19 7-37 15-55 25-90 48-163 129-200 231-8 22-28 35-50 35z" horiz-adv-x="774" />
<glyph glyph-name="emo-wink" unicode="&#xe837;" d="m262 800c-61 0-110-65-110-144 0-80 49-144 110-144s109 64 109 144c0 79-49 144-109 144z m342-98c-29 0-54-24-54-54 0-30 25-54 54-54l268 0c29 0 53 24 53 54 0 30-24 54-53 54l-268 0z m342-501c-13 0-27-5-37-16-4-4-8-8-12-12-110-109-254-164-396-165-142-1-284 50-397 155l-2 3-12 12c-21 20-54 20-75 0-20-22-20-56 1-77 3-3 8-8 14-14l3-3c132-124 301-186 469-184 169 2 337 67 468 195 4 5 9 9 14 14 20 22 20 56-1 77-10 10-24 16-37 15z" horiz-adv-x="999" />
<glyph glyph-name="chart-area" unicode="&#xe838;" d="m1143-7v-72h-1143v858h71v-786h1072z m-214 571l142-500h-928v322l250 321 321-321z" horiz-adv-x="1142.9" />
<glyph glyph-name="chart-pie" unicode="&#xe839;" d="m429 353l304-304q-59-61-138-94t-166-34q-117 0-216 58t-155 156-58 215 58 215 155 156 216 58v-426z m104-3h431q0-88-33-167t-94-138z m396 71h-429v429q117 0 215-57t156-156 58-216z" horiz-adv-x="1000" />
<glyph glyph-name="chart-line" unicode="&#xe83a;" d="m1143-7v-72h-1143v858h71v-786h1072z m-72 696v-242q0-12-10-17t-20 4l-68 68-353-353q-6-6-13-6t-13 6l-130 130-232-233-107 108 326 326q6 6 13 6t13-6l130-130 259 259-67 67q-9 9-5 20t17 11h243q7 0 12-5t5-13z" horiz-adv-x="1142.9" />
</font>
</defs>
</svg>
